<mxfile host="app.diagrams.net" modified="2023-11-23T01:38:40.794Z" agent="Mozilla/5.0 (X11; Linux x86_64) AppleWebKit/537.36 (KHTML, like Gecko) Chrome/118.0.0.0 Safari/537.36" etag="7N2FiCH4XLVPIOlKWPIG" version="22.1.3" type="github">
  <diagram name="Business" id="dzs-5oHj5AphAL6cpdhJ">
    <mxGraphModel dx="1450" dy="915" grid="0" gridSize="10" guides="1" tooltips="1" connect="1" arrows="1" fold="1" page="0" pageScale="1" pageWidth="827" pageHeight="1169" math="0" shadow="0">
      <root>
        <mxCell id="0" />
        <mxCell id="1" parent="0" />
        <mxCell id="vdVrn63xV2FAy3u7jHGA-5" value="Event Storming" style="swimlane;whiteSpace=wrap;html=1;collapsible=0;" vertex="1" parent="1">
          <mxGeometry x="-81" y="18" width="999" height="568" as="geometry" />
        </mxCell>
        <mxCell id="vdVrn63xV2FAy3u7jHGA-1" value="Sprint&lt;br&gt;Developer" style="shape=umlActor;verticalLabelPosition=bottom;verticalAlign=top;html=1;outlineConnect=0;" vertex="1" parent="vdVrn63xV2FAy3u7jHGA-5">
          <mxGeometry x="35" y="45.5" width="30" height="60" as="geometry" />
        </mxCell>
        <mxCell id="vdVrn63xV2FAy3u7jHGA-2" value="Sprint QA" style="shape=umlActor;verticalLabelPosition=bottom;verticalAlign=top;html=1;outlineConnect=0;" vertex="1" parent="vdVrn63xV2FAy3u7jHGA-5">
          <mxGeometry x="35" y="184.5" width="30" height="60" as="geometry" />
        </mxCell>
        <mxCell id="vdVrn63xV2FAy3u7jHGA-3" value="Support&lt;br&gt;Developer" style="shape=umlActor;verticalLabelPosition=bottom;verticalAlign=top;html=1;outlineConnect=0;" vertex="1" parent="vdVrn63xV2FAy3u7jHGA-5">
          <mxGeometry x="35" y="323.5" width="30" height="60" as="geometry" />
        </mxCell>
        <mxCell id="vdVrn63xV2FAy3u7jHGA-4" value="Support&lt;br&gt;QA" style="shape=umlActor;verticalLabelPosition=bottom;verticalAlign=top;html=1;outlineConnect=0;" vertex="1" parent="vdVrn63xV2FAy3u7jHGA-5">
          <mxGeometry x="35" y="462.5" width="30" height="60" as="geometry" />
        </mxCell>
        <mxCell id="vdVrn63xV2FAy3u7jHGA-6" value="Domain&lt;br&gt;Events" style="shape=note;whiteSpace=wrap;html=1;backgroundOutline=1;darkOpacity=0.05;size=19;fillColor=#fff2cc;strokeColor=#d6b656;" vertex="1" parent="1">
          <mxGeometry x="-77" y="-90" width="110" height="69" as="geometry" />
        </mxCell>
        <mxCell id="vdVrn63xV2FAy3u7jHGA-7" value="Commands" style="shape=note;whiteSpace=wrap;html=1;backgroundOutline=1;darkOpacity=0.05;size=19;fillColor=#dae8fc;strokeColor=#6c8ebf;" vertex="1" parent="1">
          <mxGeometry x="54" y="-90" width="110" height="69" as="geometry" />
        </mxCell>
      </root>
    </mxGraphModel>
  </diagram>
</mxfile>
